<svg id="Location" xmlns="http://www.w3.org/2000/svg" viewBox="0 0 36.84 39.01">
  <defs>
    <style>
      .cls-1 {
        fill: #999;
      }
    </style>
  </defs>
  <title>card-map_icon</title>
  <g>
    <polygon class="cls-1" points="36.84 39.01 0 39.01 3.43 25.31 8.16 25.31 8.16 28.31 5.77 28.31 3.84 36.01 33 36.01 31.07 28.31 28.68 28.31 28.68 25.31 33.42 25.31 36.84 39.01"/>
    <path class="cls-1" d="M18.42,34.45l-1-1c-.47-.45-11.62-11-11.62-20.6a12.65,12.65,0,0,1,25.3,0c0,9.6-11.15,20.16-11.62,20.6Zm0-31.21a9.66,9.66,0,0,0-9.65,9.65c0,6.74,7,14.62,9.65,17.39,2.67-2.77,9.65-10.65,9.65-17.39A9.66,9.66,0,0,0,18.42,3.24Zm0,14.86a5.22,5.22,0,1,1,5.22-5.22A5.22,5.22,0,0,1,18.42,18.1Zm0-7.43a2.22,2.22,0,1,0,2.22,2.22A2.22,2.22,0,0,0,18.42,10.67Z" transform="translate(0 -0.24)"/>
  </g>
</svg>
