<svg id="Location" xmlns="http://www.w3.org/2000/svg" viewBox="0 0 68.68 31.49">
  <defs>
    <style>
      .cls-1 {
        fill: #999;
      }
    </style>
  </defs>
  <title>card-360_icon</title>
  <g>
    <path class="cls-1" d="M16.84,23.4a3.41,3.41,0,0,1-3.46-3.23H9.52a7.14,7.14,0,0,0,7.29,6.89,7,7,0,0,0,7.32-7.12c0-2.62-1.13-4.79-3.4-5.72a4.76,4.76,0,0,0,1.86-3.84,5.51,5.51,0,0,0-5.72-5.72,5.42,5.42,0,0,0-5.78,5.61H15a1.89,1.89,0,1,1,3.78.09c0,2.18-2.12,2.24-2.79,2.24h-.55v3.66h.67c.76,0,4.21,0,4.21,3.66A3.38,3.38,0,0,1,16.84,23.4Z" transform="translate(0 -4.43)"/>
    <path class="cls-1" d="M33.47,27.06c4.5,0,7.41-3.37,7.41-7.64,0-4.45-2.91-7.15-6.33-7.15a6.76,6.76,0,0,0-1.08.09L38.26,5H33.7l-6.13,9.39a9,9,0,0,0-1.57,5A7.3,7.3,0,0,0,33.47,27.06Zm0-11.3A3.53,3.53,0,0,1,37,19.54a3.59,3.59,0,1,1-7.15,0A3.53,3.53,0,0,1,33.44,15.76Z" transform="translate(0 -4.43)"/>
    <path class="cls-1" d="M49.77,27.06c4.42,0,7.21-2.93,7.21-7.73V12.39c0-4.79-2.79-7.73-7.21-7.73s-7.21,2.93-7.21,7.73v6.94C42.56,24.13,45.35,27.06,49.77,27.06ZM46.43,12.39c0-3.75,2.3-4.07,3.34-4.07s3.34.32,3.34,4.07v6.94c0,3.75-2.3,4.07-3.34,4.07s-3.34-.32-3.34-4.07Z" transform="translate(0 -4.43)"/>
    <path class="cls-1" d="M63.72,4.43a5,5,0,1,0,5,5A5,5,0,0,0,63.72,4.43Zm0,7a2,2,0,1,1,2-2A2,2,0,0,1,63.72,11.41Z" transform="translate(0 -4.43)"/>
    <path class="cls-1" d="M65.5,22.34a14.14,14.14,0,0,0-5-2.43,15.59,15.59,0,0,1,4.4,3,3.38,3.38,0,0,1,1,2.09A2.69,2.69,0,0,1,65,27a12.53,12.53,0,0,1-4.4,2.47,41.64,41.64,0,0,1-5.09,1.46,84,84,0,0,1-10.6,1.56c-3.57.31-7.15.5-10.74.48s-7.18-.09-10.75-.36a90.61,90.61,0,0,1-10.63-1.38,48.85,48.85,0,0,1-5.16-1.3A18,18,0,0,1,2.9,27.74,4.8,4.8,0,0,1,1.27,26a2.32,2.32,0,0,1,.08-2.17,6.43,6.43,0,0,1,1.71-1.92,16.17,16.17,0,0,1,2.25-1.51,9.78,9.78,0,0,0-4.67,3,3.22,3.22,0,0,0-.45,3A6,6,0,0,0,2,28.91a19.27,19.27,0,0,0,4.95,2.82,43.22,43.22,0,0,0,5.31,1.74,87.7,87.7,0,0,0,21.93,2.46,84.27,84.27,0,0,0,21.9-2.78,37.36,37.36,0,0,0,5.27-1.91,13.81,13.81,0,0,0,4.74-3.31,4,4,0,0,0,1-3A4.2,4.2,0,0,0,65.5,22.34Z" transform="translate(0 -4.43)"/>
  </g>
</svg>
