<svg id="Слой_1" data-name="Слой 1" xmlns="http://www.w3.org/2000/svg" xmlns:xlink="http://www.w3.org/1999/xlink" viewBox="0 0 85.01 23.78">
  <defs>
    <style>
      .cls-1 {
        fill: url(#Безымянный_градиент);
      }

      .cls-2 {
        fill: url(#Безымянный_градиент_2);
      }

      .cls-3 {
        fill: url(#Безымянный_градиент_3);
      }

      .cls-4 {
        fill: url(#Безымянный_градиент_4);
      }

      .cls-5 {
        fill: url(#Безымянный_градиент_5);
      }

      .cls-6 {
        fill: url(#Безымянный_градиент_6);
      }

      .cls-7 {
        fill: url(#Безымянный_градиент_7);
      }

      .cls-8 {
        fill: url(#Безымянный_градиент_8);
      }

      .cls-9 {
        fill: url(#Безымянный_градиент_9);
      }

      .cls-10 {
        fill: url(#Безымянный_градиент_10);
      }

      .cls-11 {
        fill: url(#Безымянный_градиент_11);
      }

      .cls-12 {
        fill: url(#Безымянный_градиент_12);
      }

      .cls-13 {
        fill: #585757;
      }
    </style>
    <linearGradient id="Безымянный_градиент" data-name="Безымянный градиент" x1="1.05" y1="726.17" x2="2.82" y2="725.57" gradientTransform="translate(-1.1 -723.27)" gradientUnits="userSpaceOnUse">
      <stop offset="0" stop-color="#a988b8"/>
      <stop offset="0.05" stop-color="#a17aaf"/>
      <stop offset="0.17" stop-color="#905e9d"/>
      <stop offset="0.27" stop-color="#874d93"/>
      <stop offset="0.35" stop-color="#83478f"/>
      <stop offset="0.41" stop-color="#82458e"/>
      <stop offset="0.67" stop-color="#763c83"/>
      <stop offset="1" stop-color="#552660"/>
    </linearGradient>
    <linearGradient id="Безымянный_градиент_2" data-name="Безымянный градиент 2" x1="9.11" y1="726.23" x2="11.45" y2="725.43" xlink:href="#Безымянный_градиент"/>
    <linearGradient id="Безымянный_градиент_3" data-name="Безымянный градиент 3" x1="4.89" y1="726.3" x2="7.04" y2="725.57" xlink:href="#Безымянный_градиент"/>
    <linearGradient id="Безымянный_градиент_4" data-name="Безымянный градиент 4" x1="2.44" y1="729.92" x2="4.78" y2="729.12" xlink:href="#Безымянный_градиент"/>
    <linearGradient id="Безымянный_градиент_5" data-name="Безымянный градиент 5" x1="7.1" y1="729.69" x2="9.05" y2="729.03" xlink:href="#Безымянный_градиент"/>
    <linearGradient id="Безымянный_градиент_6" data-name="Безымянный градиент 6" x1="4.22" y1="733.92" x2="7.12" y2="732.93" xlink:href="#Безымянный_градиент"/>
    <linearGradient id="Безымянный_градиент_7" data-name="Безымянный градиент 7" x1="13.31" y1="727.17" x2="17.09" y2="725.88" xlink:href="#Безымянный_градиент"/>
    <linearGradient id="Безымянный_градиент_8" data-name="Безымянный градиент 8" x1="10.19" y1="732.55" x2="13.57" y2="731.41" xlink:href="#Безымянный_градиент"/>
    <linearGradient id="Безымянный_градиент_9" data-name="Безымянный градиент 9" x1="6.25" y1="738.41" x2="10.65" y2="736.92" xlink:href="#Безымянный_градиент"/>
    <linearGradient id="Безымянный_градиент_10" data-name="Безымянный градиент 10" x1="17.8" y1="728.52" x2="23.32" y2="726.65" xlink:href="#Безымянный_градиент"/>
    <linearGradient id="Безымянный_градиент_11" data-name="Безымянный градиент 11" x1="13.51" y1="736.15" x2="19.01" y2="734.28" xlink:href="#Безымянный_градиент"/>
    <linearGradient id="Безымянный_градиент_12" data-name="Безымянный градиент 12" x1="8.94" y1="743.67" x2="14.51" y2="741.78" xlink:href="#Безымянный_градиент"/>
  </defs>
  <title>Logo_Volterra_1</title>
  <g>
    <path class="cls-1" d="M.3,3.6,0,3.1a.3.3,0,0,1,.1-.3L.9,1.6a.3.3,0,0,1,.4-.1h.1l.2.3a.3.3,0,0,1,0,.3L.8,3.6a.3.3,0,0,1-.4.1Z" transform="translate(0.01 0.04)"/>
    <path class="cls-2" d="M8.5,4.1l-.4-1a.3.3,0,0,1,0-.3L9.4.9A.3.3,0,0,1,9.8.8h.1l.3.9a.3.3,0,0,1,0,.2L9,4.2a.3.3,0,0,1-.4.1Z" transform="translate(0.01 0.04)"/>
    <path class="cls-3" d="M4.2,4l-.3-.7a.3.3,0,0,1,0-.3L5.1,1.3a.3.3,0,0,1,.4-.1h.1l.2.5a.3.3,0,0,1,0,.3L4.7,4a.3.3,0,0,1-.4.1Z" transform="translate(0.01 0.04)"/>
    <path class="cls-4" d="M1.9,7.8l-.4-.9a.3.3,0,0,1,0-.3L2.7,4.7a.3.3,0,0,1,.4-.1h.1l.3.7a.3.3,0,0,1,0,.3L2.3,7.8a.3.3,0,0,1-.4.1Z" transform="translate(0.01 0.04)"/>
    <path class="cls-5" d="M6.4,7.5,6,6.5a.3.3,0,0,1,0-.3L7,4.6a.3.3,0,0,1,.4-.1h.1l.4,1a.3.3,0,0,1,0,.3l-1,1.8a.3.3,0,0,1-.4.1Z" transform="translate(0.01 0.04)"/>
    <path class="cls-6" d="M3.8,12.2l-.6-1.1a.5.5,0,0,1,0-.5L4.9,8.1A.3.3,0,0,1,5.3,8h.1l.5,1a.5.5,0,0,1,0,.5L4.3,12.2a.3.3,0,0,1-.4.1Z" transform="translate(0.01 0.04)"/>
    <path class="cls-7" d="M13.1,6.1l-.8-1.7a.5.5,0,0,1,0-.5L14.6.4A.3.3,0,0,1,15,.3h.1l.7,1.6a.5.5,0,0,1,0,.5L13.6,6.1a.3.3,0,0,1-.4.1Z" transform="translate(0.01 0.04)"/>
    <path class="cls-8" d="M10,11.3,9.2,9.5a.5.5,0,0,1,0-.5l1.9-3a.3.3,0,0,1,.4-.1h.1l.7,1.9a.5.5,0,0,1,0,.5l-1.8,3.1a.3.3,0,0,1-.4.1Z" transform="translate(0.01 0.04)"/>
    <path class="cls-9" d="M6.3,17.7l-1-2a.5.5,0,0,1,0-.5l2.6-4.1a.3.3,0,0,1,.4-.1h.1l.9,1.8a.5.5,0,0,1,0,.5L6.8,17.7a.3.3,0,0,1-.3.1Z" transform="translate(0.01 0.04)"/>
    <path class="cls-10" d="M18.2,8.4,17,6a.5.5,0,0,1,0-.5L20.3.1a.3.3,0,0,1,.4-.1h.1l1.1,2.5a.5.5,0,0,1,0,.5L18.7,8.5a.3.3,0,0,1-.4.1Z" transform="translate(0.01 0.04)"/>
    <path class="cls-11" d="M13.9,16.1l-1.3-2.4a.5.5,0,0,1,0-.5l3.3-5.4a.3.3,0,0,1,.4-.1h.1l1.2,2.4a.5.5,0,0,1,0,.5l-3.2,5.5a.3.3,0,0,1-.4.1Z" transform="translate(0.01 0.04)"/>
    <path class="cls-12" d="M9.4,23.6,8.1,21.1a.5.5,0,0,1,0-.5l3.3-5.3a.3.3,0,0,1,.4-.1h.1l1.3,2.5a.4.4,0,0,1,0,.4L9.9,23.6a.3.3,0,0,1-.4.1Z" transform="translate(0.01 0.04)"/>
  </g>
  <g>
    <g>
      <path class="cls-13" d="M25,5.94h1.47l2,5.67h0l2-5.67H32L29,13.3H27.88Z" transform="translate(0.01 0.04)"/>
      <path class="cls-13" d="M33.23,9.6a4.12,4.12,0,0,1,.3-1.6,3.51,3.51,0,0,1,.82-1.21A3.64,3.64,0,0,1,35.6,6a4.46,4.46,0,0,1,1.57-.27A4.53,4.53,0,0,1,38.76,6,3.68,3.68,0,0,1,40,6.79,3.47,3.47,0,0,1,40.85,8a4.12,4.12,0,0,1,.3,1.6,4.06,4.06,0,0,1-.3,1.57A3.63,3.63,0,0,1,40,12.4a3.75,3.75,0,0,1-1.26.8,4.31,4.31,0,0,1-1.59.29,4.25,4.25,0,0,1-1.57-.29,3.63,3.63,0,0,1-2.07-2A4.06,4.06,0,0,1,33.23,9.6Zm1.42,0a3.12,3.12,0,0,0,.18,1.09,2.52,2.52,0,0,0,.52.86,2.38,2.38,0,0,0,.8.57,2.52,2.52,0,0,0,1,.2,2.56,2.56,0,0,0,1-.2,2.37,2.37,0,0,0,.81-.57,2.53,2.53,0,0,0,.52-.86,3.12,3.12,0,0,0,.18-1.09,3,3,0,0,0-.18-1.06A2.59,2.59,0,0,0,39,7.68a2.39,2.39,0,0,0-.8-.57,2.53,2.53,0,0,0-1-.21,2.49,2.49,0,0,0-1,.21,2.39,2.39,0,0,0-.8.57,2.58,2.58,0,0,0-.51.85A3,3,0,0,0,34.66,9.6Z" transform="translate(0.01 0.04)"/>
      <path class="cls-13" d="M43.45,5.94h1.31v6.2h3.13V13.3H43.45Z" transform="translate(0.01 0.04)"/>
      <path class="cls-13" d="M50.4,7.08H48.14V5.94H54V7.08H51.71V13.3H50.4Z" transform="translate(0.01 0.04)"/>
      <path class="cls-13" d="M55.85,5.94h4.88V7.08H57.16V9h3.38v1.1H57.16v2.08h3.75V13.3H55.85Z" transform="translate(0.01 0.04)"/>
      <path class="cls-13" d="M63.23,5.94h2.56a4.61,4.61,0,0,1,1,.11,2.59,2.59,0,0,1,.87.36,1.87,1.87,0,0,1,.61.65,2,2,0,0,1,.23,1,1.88,1.88,0,0,1-.45,1.3,2.28,2.28,0,0,1-1.23.68l2,3.26H67.2l-1.7-3.12h-1V13.3H63.23Zm2.38,3.17a3.83,3.83,0,0,0,.56,0,1.62,1.62,0,0,0,.5-.16A1,1,0,0,0,67,8.58,1,1,0,0,0,67.19,8a.84.84,0,0,0-.14-.49,1,1,0,0,0-.34-.31,1.44,1.44,0,0,0-.47-.16,3.34,3.34,0,0,0-.51,0H64.54V9.11Z" transform="translate(0.01 0.04)"/>
      <path class="cls-13" d="M70.81,5.94h2.56a4.61,4.61,0,0,1,1,.11,2.59,2.59,0,0,1,.87.36,1.87,1.87,0,0,1,.61.65,2,2,0,0,1,.23,1,1.88,1.88,0,0,1-.45,1.3A2.28,2.28,0,0,1,74.4,10l2,3.26H74.78l-1.7-3.12h-1V13.3H70.81Zm2.38,3.17a3.83,3.83,0,0,0,.56,0,1.62,1.62,0,0,0,.5-.16,1,1,0,0,0,.37-.33A1,1,0,0,0,74.77,8a.84.84,0,0,0-.14-.49,1,1,0,0,0-.34-.31,1.44,1.44,0,0,0-.47-.16,3.34,3.34,0,0,0-.51,0H72.12V9.11Z" transform="translate(0.01 0.04)"/>
      <path class="cls-13" d="M80.7,5.94h1.13L85,13.3H83.5l-.69-1.68H79.63L79,13.3H77.5Zm1.66,4.55-1.13-3-1.15,3Z" transform="translate(0.01 0.04)"/>
    </g>
    <g>
      <path class="cls-13" d="M36.87,19.16h1.2v.2H36.65V17.12H38v.2H36.87v.77H38v.2H36.87Z" transform="translate(0.01 0.04)"/>
      <path class="cls-13" d="M41.25,19h0V17.12h.23v2.24h-.28l-1.3-1.93h0v1.93h-.23V17.12h.28Z" transform="translate(0.01 0.04)"/>
      <path class="cls-13" d="M43.44,19.16h1.2v.2H43.21V17.12H44.6v.2H43.44v.77h1.08v.2H43.44Z" transform="translate(0.01 0.04)"/>
      <path class="cls-13" d="M46.45,19.36h-.23V17.12h.66a1.39,1.39,0,0,1,.31,0,.69.69,0,0,1,.24.1.49.49,0,0,1,.16.19.62.62,0,0,1,.06.28.55.55,0,0,1-.16.4.58.58,0,0,1-.18.12.78.78,0,0,1-.23.06l.65,1.07h-.28l-.62-1h-.38Zm0-1.24h.4a.76.76,0,0,0,.42-.1.34.34,0,0,0,.15-.3.39.39,0,0,0,0-.19.34.34,0,0,0-.11-.12.52.52,0,0,0-.18-.07l-.23,0h-.4Z" transform="translate(0.01 0.04)"/>
      <path class="cls-13" d="M51,17.53a.82.82,0,0,0-.28-.19,1,1,0,0,0-.37-.07.92.92,0,0,0-.39.08.88.88,0,0,0-.29.21,1,1,0,0,0-.18.31,1.1,1.1,0,0,0,0,.74.93.93,0,0,0,.18.31.89.89,0,0,0,.29.21.92.92,0,0,0,.39.08,1.39,1.39,0,0,0,.35,0,.88.88,0,0,0,.26-.1v-.68h-.52v-.2h.75v1a1.45,1.45,0,0,1-.4.16,1.78,1.78,0,0,1-.44.05,1.22,1.22,0,0,1-.47-.09,1.1,1.1,0,0,1-.37-.25,1.11,1.11,0,0,1-.24-.37,1.24,1.24,0,0,1-.09-.47,1.22,1.22,0,0,1,.09-.47,1.11,1.11,0,0,1,.62-.62,1.2,1.2,0,0,1,.46-.09,1.24,1.24,0,0,1,.47.08,1,1,0,0,1,.34.22Z" transform="translate(0.01 0.04)"/>
      <path class="cls-13" d="M53.47,19.36h-.23v-1l-.84-1.27h.28l.67,1.08L54,17.12h.27l-.84,1.27Z" transform="translate(0.01 0.04)"/>
      <path class="cls-13" d="M59.3,17.53a.82.82,0,0,0-.28-.19,1,1,0,0,0-.37-.07.92.92,0,0,0-.39.08.88.88,0,0,0-.29.21,1,1,0,0,0-.18.31,1.1,1.1,0,0,0,0,.74.93.93,0,0,0,.18.31.89.89,0,0,0,.29.21.92.92,0,0,0,.39.08,1.39,1.39,0,0,0,.35,0,.88.88,0,0,0,.26-.1v-.68h-.52v-.2h.75v1a1.45,1.45,0,0,1-.4.16,1.78,1.78,0,0,1-.44.05,1.22,1.22,0,0,1-.47-.09,1.1,1.1,0,0,1-.37-.25,1.11,1.11,0,0,1-.24-.37,1.24,1.24,0,0,1-.09-.47,1.22,1.22,0,0,1,.09-.47,1.11,1.11,0,0,1,.62-.62,1.2,1.2,0,0,1,.46-.09,1.24,1.24,0,0,1,.47.08,1,1,0,0,1,.34.22Z" transform="translate(0.01 0.04)"/>
      <path class="cls-13" d="M61.43,19.36H61.2V17.12h.66a1.39,1.39,0,0,1,.31,0,.69.69,0,0,1,.24.1.49.49,0,0,1,.16.19.62.62,0,0,1,.06.28.55.55,0,0,1-.16.4.58.58,0,0,1-.18.12.78.78,0,0,1-.23.06l.65,1.07h-.28l-.62-1h-.38Zm0-1.24h.4a.76.76,0,0,0,.42-.1.34.34,0,0,0,.15-.3.39.39,0,0,0,0-.19.34.34,0,0,0-.11-.12.52.52,0,0,0-.18-.07l-.23,0h-.4Z" transform="translate(0.01 0.04)"/>
      <path class="cls-13" d="M66.45,18.24a1.23,1.23,0,0,1-.09.47,1.11,1.11,0,0,1-.62.62,1.26,1.26,0,0,1-.93,0,1.11,1.11,0,0,1-.62-.62,1.3,1.3,0,0,1,0-.94,1.11,1.11,0,0,1,.62-.62,1.26,1.26,0,0,1,.93,0,1.11,1.11,0,0,1,.62.62A1.23,1.23,0,0,1,66.45,18.24Zm-.24,0a1.1,1.1,0,0,0-.06-.37.93.93,0,0,0-.18-.31.88.88,0,0,0-.29-.21,1,1,0,0,0-.77,0,.88.88,0,0,0-.29.21.93.93,0,0,0-.18.31,1.13,1.13,0,0,0,0,.74.91.91,0,0,0,.18.31.89.89,0,0,0,.29.21,1,1,0,0,0,.77,0,.89.89,0,0,0,.29-.21.91.91,0,0,0,.18-.31A1.1,1.1,0,0,0,66.21,18.24Z" transform="translate(0.01 0.04)"/>
      <path class="cls-13" d="M68.89,19.42a.87.87,0,0,1-.41-.09.74.74,0,0,1-.26-.22.81.81,0,0,1-.13-.29,1.32,1.32,0,0,1,0-.3v-1.4h.23V18.5a1.1,1.1,0,0,0,0,.26.66.66,0,0,0,.1.23.53.53,0,0,0,.19.16.7.7,0,0,0,.58,0,.53.53,0,0,0,.19-.16.66.66,0,0,0,.1-.23,1.1,1.1,0,0,0,0-.26V17.12h.23v1.4a1.32,1.32,0,0,1,0,.3.81.81,0,0,1-.13.29.74.74,0,0,1-.26.22A.87.87,0,0,1,68.89,19.42Z" transform="translate(0.01 0.04)"/>
      <path class="cls-13" d="M71.45,17.12h.63a1.23,1.23,0,0,1,.31,0,.68.68,0,0,1,.24.11.5.5,0,0,1,.15.19.61.61,0,0,1,.05.26.59.59,0,0,1-.06.26.51.51,0,0,1-.15.19.7.7,0,0,1-.24.11,1.19,1.19,0,0,1-.31,0h-.4v1h-.23Zm.23,1h.39a.67.67,0,0,0,.41-.1.36.36,0,0,0,.14-.3.34.34,0,0,0-.14-.31.72.72,0,0,0-.4-.1h-.39Z" transform="translate(0.01 0.04)"/>
    </g>
  </g>
</svg>
