<svg id="Слой_1" data-name="Слой 1" xmlns="http://www.w3.org/2000/svg" xmlns:xlink="http://www.w3.org/1999/xlink" viewBox="0 0 85 23.8">
  <defs>
    <style>
      .cls-1 {
        fill: url(#Безымянный_градиент_709);
      }

      .cls-2 {
        fill: url(#Безымянный_градиент_710);
      }

      .cls-3 {
        fill: url(#Безымянный_градиент_711);
      }

      .cls-4 {
        fill: url(#Безымянный_градиент_712);
      }

      .cls-5 {
        fill: url(#Безымянный_градиент_713);
      }

      .cls-6 {
        fill: url(#Безымянный_градиент_714);
      }

      .cls-7 {
        fill: url(#Безымянный_градиент_715);
      }

      .cls-8 {
        fill: url(#Безымянный_градиент_716);
      }

      .cls-9 {
        fill: url(#Безымянный_градиент_717);
      }

      .cls-10 {
        fill: url(#Безымянный_градиент_718);
      }

      .cls-11 {
        fill: url(#Безымянный_градиент_719);
      }

      .cls-12 {
        fill: url(#Безымянный_градиент_720);
      }

      .cls-13 {
        fill: #fff;
      }
    </style>
    <linearGradient id="Безымянный_градиент_709" data-name="Безымянный градиент 709" x1="1.05" y1="41.84" x2="2.82" y2="42.44" gradientTransform="matrix(1, 0, 0, -1, -1, 44.93)" gradientUnits="userSpaceOnUse">
      <stop offset="0" stop-color="#a988b8"/>
      <stop offset="0.05" stop-color="#a17aaf"/>
      <stop offset="0.17" stop-color="#905e9d"/>
      <stop offset="0.27" stop-color="#874d93"/>
      <stop offset="0.35" stop-color="#83478f"/>
      <stop offset="0.41" stop-color="#82458e"/>
      <stop offset="0.67" stop-color="#763c83"/>
      <stop offset="1" stop-color="#552660"/>
    </linearGradient>
    <linearGradient id="Безымянный_градиент_710" data-name="Безымянный градиент 710" x1="9.1" y1="41.81" x2="11.44" y2="42.61" xlink:href="#Безымянный_градиент_709"/>
    <linearGradient id="Безымянный_градиент_711" data-name="Безымянный градиент 711" x1="4.9" y1="41.69" x2="7.05" y2="42.42" xlink:href="#Безымянный_градиент_709"/>
    <linearGradient id="Безымянный_градиент_712" data-name="Безымянный градиент 712" x1="2.44" y1="38.07" x2="4.78" y2="38.87" xlink:href="#Безымянный_градиент_709"/>
    <linearGradient id="Безымянный_градиент_713" data-name="Безымянный градиент 713" x1="7.09" y1="38.33" x2="9.04" y2="38.99" xlink:href="#Безымянный_градиент_709"/>
    <linearGradient id="Безымянный_градиент_714" data-name="Безымянный градиент 714" x1="4.23" y1="34.06" x2="7.13" y2="35.05" xlink:href="#Безымянный_градиент_709"/>
    <linearGradient id="Безымянный_градиент_715" data-name="Безымянный градиент 715" x1="13.31" y1="40.82" x2="17.09" y2="42.11" xlink:href="#Безымянный_градиент_709"/>
    <linearGradient id="Безымянный_градиент_716" data-name="Безымянный градиент 716" x1="10.16" y1="35.53" x2="13.54" y2="36.67" xlink:href="#Безымянный_градиент_709"/>
    <linearGradient id="Безымянный_градиент_717" data-name="Безымянный градиент 717" x1="6.24" y1="29.61" x2="10.64" y2="31.1" xlink:href="#Безымянный_градиент_709"/>
    <linearGradient id="Безымянный_градиент_718" data-name="Безымянный градиент 718" x1="17.8" y1="39.49" x2="23.32" y2="41.36" xlink:href="#Безымянный_градиент_709"/>
    <linearGradient id="Безымянный_градиент_719" data-name="Безымянный градиент 719" x1="13.49" y1="31.91" x2="18.99" y2="33.78" xlink:href="#Безымянный_градиент_709"/>
    <linearGradient id="Безымянный_градиент_720" data-name="Безымянный градиент 720" x1="8.92" y1="24.38" x2="14.49" y2="26.27" xlink:href="#Безымянный_градиент_709"/>
  </defs>
  <title>Logo_Volterra</title>
  <g>
    <path class="cls-1" d="M.4,3.8.1,3.3A.3.3,0,0,1,.2,3L1,1.8a.3.3,0,0,1,.4-.1h.1l.2.3a.3.3,0,0,1,0,.3L.9,3.8a.3.3,0,0,1-.4.1Z" transform="translate(-0.1 -0.2)"/>
    <path class="cls-2" d="M8.6,4.3l-.4-1a.3.3,0,0,1,0-.3L9.5,1.1A.3.3,0,0,1,9.9,1H10l.3.9a.3.3,0,0,1,0,.2L9.1,4.4a.3.3,0,0,1-.4.1Z" transform="translate(-0.1 -0.2)"/>
    <path class="cls-3" d="M4.3,4.2,4,3.5a.3.3,0,0,1,0-.3L5.2,1.5a.3.3,0,0,1,.4-.1h.1l.2.5a.3.3,0,0,1,0,.3L4.8,4.2a.3.3,0,0,1-.4.1Z" transform="translate(-0.1 -0.2)"/>
    <path class="cls-4" d="M2,8l-.4-.9a.3.3,0,0,1,0-.3L2.8,4.9a.3.3,0,0,1,.4-.1h.1l.3.7a.3.3,0,0,1,0,.3L2.4,8a.3.3,0,0,1-.4.1Z" transform="translate(-0.1 -0.2)"/>
    <path class="cls-5" d="M6.5,7.7,6.1,6.7a.3.3,0,0,1,0-.3l1-1.6a.3.3,0,0,1,.4-.1h.1l.4,1a.3.3,0,0,1,0,.3L7,7.8a.3.3,0,0,1-.4.1Z" transform="translate(-0.1 -0.2)"/>
    <path class="cls-6" d="M3.9,12.4l-.6-1.1a.5.5,0,0,1,0-.5L5,8.3a.3.3,0,0,1,.4-.1h.1l.5,1a.5.5,0,0,1,0,.5L4.4,12.4a.3.3,0,0,1-.4.1Z" transform="translate(-0.1 -0.2)"/>
    <path class="cls-7" d="M13.2,6.3l-.8-1.7a.5.5,0,0,1,0-.5L14.7.6a.3.3,0,0,1,.4-.1h.1l.7,1.6a.5.5,0,0,1,0,.5L13.7,6.3a.3.3,0,0,1-.4.1Z" transform="translate(-0.1 -0.2)"/>
    <path class="cls-8" d="M10.1,11.5,9.3,9.7a.5.5,0,0,1,0-.5l1.9-3a.3.3,0,0,1,.4-.1h.1L12.4,8a.5.5,0,0,1,0,.5l-1.8,3.1a.3.3,0,0,1-.4.1Z" transform="translate(-0.1 -0.2)"/>
    <path class="cls-9" d="M6.4,17.9l-1-2a.5.5,0,0,1,0-.5L8,11.3a.3.3,0,0,1,.4-.1h.1l.9,1.8a.5.5,0,0,1,0,.5L6.9,17.9a.3.3,0,0,1-.3.1Z" transform="translate(-0.1 -0.2)"/>
    <path class="cls-10" d="M18.3,8.6,17.1,6.2a.5.5,0,0,1,0-.5L20.4.3a.3.3,0,0,1,.4-.1h.1L22,2.7a.5.5,0,0,1,0,.5L18.8,8.7a.3.3,0,0,1-.4.1Z" transform="translate(-0.1 -0.2)"/>
    <path class="cls-11" d="M14,16.3l-1.3-2.4a.5.5,0,0,1,0-.5l3.3-5.4a.3.3,0,0,1,.4-.1h.1l1.2,2.4a.5.5,0,0,1,0,.5l-3.2,5.5a.3.3,0,0,1-.4.1Z" transform="translate(-0.1 -0.2)"/>
    <path class="cls-12" d="M9.5,23.8,8.2,21.3a.5.5,0,0,1,0-.5l3.3-5.3a.3.3,0,0,1,.4-.1h.1l1.3,2.5a.4.4,0,0,1,0,.4L10,23.8a.3.3,0,0,1-.4.1Z" transform="translate(-0.1 -0.2)"/>
  </g>
  <g>
    <path class="cls-13" d="M25,6.1h1.5l2,5.7h0l2-5.7H32l-2.9,7.4H27.9Z" transform="translate(-0.1 -0.2)"/>
    <path class="cls-13" d="M33.3,9.8a4.1,4.1,0,0,1,.3-1.6A3.5,3.5,0,0,1,34.4,7a3.6,3.6,0,0,1,1.2-.8l1.6-.3,1.6.3a3.7,3.7,0,0,1,1.3.8,3.5,3.5,0,0,1,.8,1.2,4.1,4.1,0,0,1,.3,1.6,4.1,4.1,0,0,1-.3,1.6,3.6,3.6,0,0,1-.8,1.2,3.8,3.8,0,0,1-1.3.8,4.3,4.3,0,0,1-1.6.3,4.3,4.3,0,0,1-1.6-.3,3.6,3.6,0,0,1-2.1-2A4.1,4.1,0,0,1,33.3,9.8Zm1.4,0a3.1,3.1,0,0,0,.2,1.1,2.5,2.5,0,0,0,.5.9l.8.6,1,.2,1-.2.8-.6a2.5,2.5,0,0,0,.5-.9,3.1,3.1,0,0,0,.2-1.1,3,3,0,0,0-.2-1.1,2.6,2.6,0,0,0-.5-.9l-.8-.6-1-.2-1,.2-.8.6a2.6,2.6,0,0,0-.5.9,3,3,0,0,0-.2,1.1Z" transform="translate(-0.1 -0.2)"/>
    <path class="cls-13" d="M43.5,6.1h1.3v6.2H48v1.2H43.5Z" transform="translate(-0.1 -0.2)"/>
    <path class="cls-13" d="M50.5,7.3H48.2V6.1H54V7.3H51.8v6.2H50.5Z" transform="translate(-0.1 -0.2)"/>
    <path class="cls-13" d="M55.9,6.1h4.9V7.3H57.2V9.1h3.4v1.1H57.2v2.1H61v1.2H55.9Z" transform="translate(-0.1 -0.2)"/>
    <path class="cls-13" d="M63.3,6.1h3.6l.9.4a1.9,1.9,0,0,1,.6.7,2,2,0,0,1,.2,1,1.9,1.9,0,0,1-.5,1.3,2.3,2.3,0,0,1-1.2.7l2,3.3H67.3l-1.7-3.1h-1v3.1H63.3Zm2.4,3.2h.6l.5-.2.4-.3a.9.9,0,0,0,.1-.5.8.8,0,0,0-.1-.5l-.3-.3-.5-.2H64.6V9.3Z" transform="translate(-0.1 -0.2)"/>
    <path class="cls-13" d="M70.9,6.1h3.6l.9.4a1.9,1.9,0,0,1,.6.7,2,2,0,0,1,.2,1,1.9,1.9,0,0,1-.5,1.3,2.3,2.3,0,0,1-1.2.7l2,3.3H74.9l-1.7-3.1h-1v3.1H70.9Zm2.4,3.2h.6l.5-.2.4-.3a.9.9,0,0,0,.1-.5.8.8,0,0,0-.1-.5l-.3-.3-.5-.2H72.2V9.3Z" transform="translate(-0.1 -0.2)"/>
    <path class="cls-13" d="M80.8,6.1h1.1l3.2,7.4H83.6l-.7-1.7H79.7L79,13.5H77.6Zm1.7,4.6-1.1-3-1.2,3Z" transform="translate(-0.1 -0.2)"/>
  </g>
  <g>
    <path class="cls-13" d="M36.9,19.4h1.2v.2H36.7V17.3h1.4v.2H36.9v.8H38v.2H36.9Z" transform="translate(-0.1 -0.2)"/>
    <path class="cls-13" d="M41.3,19.2h0V17.3h.2v2.2h-.3l-1.3-1.9h0v1.9h-.2V17.3H40Z" transform="translate(-0.1 -0.2)"/>
    <path class="cls-13" d="M43.5,19.4h1.2v.2H43.3V17.3h1.4v.2H43.5v.8h1.1v.2H43.5Z" transform="translate(-0.1 -0.2)"/>
    <path class="cls-13" d="M46.5,19.6h-.2V17.3h1.2l.2.2a.6.6,0,0,1,.1.3.5.5,0,0,1-.2.4h-.4l.7,1.1h-.3l-.6-1h-.4Zm0-1.2h.8a.3.3,0,0,0,.1-.3v-.2h-.9Z" transform="translate(-0.1 -0.2)"/>
    <path class="cls-13" d="M51,17.7l-.3-.2H50l-.3.2-.2.3a1.1,1.1,0,0,0,0,.7l.2.3.3.2h1v-.7h-.5v-.2h.8v1l-.4.2h-.9l-.4-.2-.2-.4a1.2,1.2,0,0,1-.1-.5,1.2,1.2,0,0,1,.1-.5,1.1,1.1,0,0,1,.6-.6h.9l.3.2Z" transform="translate(-0.1 -0.2)"/>
    <path class="cls-13" d="M53.5,19.6h-.2v-1l-.8-1.3h.3l.7,1.1.7-1.1h.3l-.8,1.3Z" transform="translate(-0.1 -0.2)"/>
    <path class="cls-13" d="M59.4,17.7l-.3-.2h-.8l-.3.2-.2.3a1.1,1.1,0,0,0,0,.7l.2.3.3.2h1v-.7h-.5v-.2h.8v1l-.4.2h-.9l-.4-.2-.2-.4a1.2,1.2,0,0,1-.1-.5,1.2,1.2,0,0,1,.1-.5,1.1,1.1,0,0,1,.6-.6h.9l.3.2Z" transform="translate(-0.1 -0.2)"/>
    <path class="cls-13" d="M61.5,19.6h-.2V17.3h1.2l.2.2a.6.6,0,0,1,.1.3.5.5,0,0,1-.2.4h-.4l.7,1.1h-.3l-.6-1h-.4Zm0-1.2h.8a.3.3,0,0,0,.1-.3v-.2h-.9Z" transform="translate(-0.1 -0.2)"/>
    <path class="cls-13" d="M66.5,18.4a1.2,1.2,0,0,1-.1.5,1.1,1.1,0,0,1-.6.6,1.3,1.3,0,0,1-.9,0,1.1,1.1,0,0,1-.6-.6,1.3,1.3,0,0,1,0-.9,1.1,1.1,0,0,1,.6-.6,1.3,1.3,0,0,1,.9,0,1.1,1.1,0,0,1,.6.6A1.2,1.2,0,0,1,66.5,18.4Zm-.2,0a1.1,1.1,0,0,0-.1-.4l-.2-.3-.3-.2a1,1,0,0,0-.8,0l-.3.2-.2.3a1.1,1.1,0,0,0,0,.7l.2.3.3.2a1,1,0,0,0,.8,0l.3-.2.2-.3A1.1,1.1,0,0,0,66.3,18.4Z" transform="translate(-0.1 -0.2)"/>
    <path class="cls-13" d="M69,19.6h-.4l-.3-.2v-2h.2v1.9l.2.2h.6l.2-.2V17.3h.2v2l-.3.2Z" transform="translate(-0.1 -0.2)"/>
    <path class="cls-13" d="M71.5,17.3h1.2l.2.2v.5l-.2.2h-.9v1h-.2Zm.2,1h.8a.4.4,0,0,0,.1-.3.3.3,0,0,0-.1-.3h-.8Z" transform="translate(-0.1 -0.2)"/>
  </g>
</svg>
